HIERARCHY
ROOT Hips
{
	OFFSET -0.001795 -0.223333 0.028219
	CHANNELS 6 Xposition Yposition Zposition Zrotation Yrotation Xrotation 
	JOINT LeftUpLeg
	{
		OFFSET 0.069520 -0.091406 -0.006815
		CHANNELS 3 Zrotation Yrotation Xrotation
		JOINT LeftLeg
		{
			OFFSET 0.034277 -0.375199 -0.004496
			CHANNELS 3 Zrotation Yrotation Xrotation
			JOINT LeftFoot
			{
				OFFSET -0.013596 -0.397961 -0.043693
				CHANNELS 3 Zrotation Yrotation Xrotation
				JOINT LeftToe
				{
					OFFSET 0.026358 -0.055791 0.119288
					CHANNELS 3 Zrotation Yrotation Xrotation
					End Site
					{
						OFFSET 0.000000 0.000000 0.000000
					}
				}
			}
		}
	}
	JOINT RightUpLeg
	{
		OFFSET -0.067670 -0.090522 -0.004320
		CHANNELS 3 Zrotation Yrotation Xrotation
		JOINT RightLeg
		{
			OFFSET -0.038290 -0.382569 -0.008850
			CHANNELS 3 Zrotation Yrotation Xrotation
			JOINT RightFoot
			{
				OFFSET 0.015774 -0.398415 -0.042312
				CHANNELS 3 Zrotation Yrotation Xrotation
				JOINT RightToe
				{
					OFFSET -0.025372 -0.048144 0.123348
					CHANNELS 3 Zrotation Yrotation Xrotation
					End Site
					{
						OFFSET 0.000000 0.000000 0.000000
					}
				}
			}
		}
	}
	JOINT Spine
	{
		OFFSET -0.002533 0.108963 -0.026696
		CHANNELS 3 Zrotation Yrotation Xrotation
		JOINT Spine1
		{
			OFFSET 0.005487 0.135180 0.001092
			CHANNELS 3 Zrotation Yrotation Xrotation
			JOINT Spine2
			{
				OFFSET 0.001457 0.052922 0.025425
				CHANNELS 3 Zrotation Yrotation Xrotation
				JOINT Neck
				{
					OFFSET -0.002778 0.213870 -0.042857
					CHANNELS 3 Zrotation Yrotation Xrotation
					JOINT Head
					{
						OFFSET 0.005152 0.064970 0.051349
						CHANNELS 3 Zrotation Yrotation Xrotation
						End Site
						{
							OFFSET 0.000000 0.000000 0.000000
						}
					}
				}
				JOINT LeftShoulder
				{
					OFFSET 0.078845 0.121749 -0.034090
					CHANNELS 3 Zrotation Yrotation Xrotation
					JOINT LeftArm
					{
						OFFSET 0.090977 0.030469 -0.008868
						CHANNELS 3 Zrotation Yrotation Xrotation
						JOINT LeftForeArm
						{
							OFFSET 0.259612 -0.012772 -0.027456
							CHANNELS 3 Zrotation Yrotation Xrotation
							JOINT LeftHand
							{
								OFFSET 0.249234 0.008986 -0.001171
								CHANNELS 3 Zrotation Yrotation Xrotation
								End Site
								{
									OFFSET 0.000000 0.000000 0.000000
								}
							}
						}
					}
				}
				JOINT RightShoulder
				{
					OFFSET -0.081759 0.118833 -0.038615
					CHANNELS 3 Zrotation Yrotation Xrotation
					JOINT RightArm
					{
						OFFSET -0.096012 0.032551 -0.009143
						CHANNELS 3 Zrotation Yrotation Xrotation
						JOINT RightForeArm
						{
							OFFSET -0.253742 -0.013329 -0.021401
							CHANNELS 3 Zrotation Yrotation Xrotation
							JOINT RightHand
							{
								OFFSET -0.255298 0.007772 -0.005559
								CHANNELS 3 Zrotation Yrotation Xrotation
								End Site
								{
									OFFSET 0.000000 0.000000 0.000000
								}
							}
						}
					}
				}
			}
		}
	}
}
MOTION
Frames: 16
Frame Time: 0.050000
0.000000 0.947967 0.000000 -2.290230 2.510129 6.979448 5.937196 -0.374960 -4.271797 1.229135 0.209079 -7.671810 2.234587 8.574474 12.257811 0.000000 0.000000 0.000000 -3.615157 0.653399 -7.585097 0.003117 -0.094071 -2.378437 -1.746842 -7.754031 11.186149 0.000000 0.000000 0.000000 0.992503 0.108339 -2.930964 0.911489 -0.245651 -4.264164 0.401118 -1.477518 5.127731 0.188323 0.577858 -9.934857 0.000000 0.000000 0.000000 -17.018091 3.491539 -3.372011 -56.705096 -6.113732 -3.869166 -9.148011 -19.105785 2.267483 0.000000 0.000000 0.000000 13.295302 -2.465860 -2.417015 61.438389 5.790583 -2.969259 4.584628 17.464138 1.186712 0.000000 0.000000 0.000000 
0.000175 0.947202 0.000204 -2.567324 1.242962 7.410727 5.522479 -0.353632 -3.942595 2.691816 0.210865 -8.624772 2.691974 9.239598 12.587179 0.000000 0.000000 0.000000 -3.823416 0.692553 -8.051406 0.619578 -0.132188 -1.964329 -0.893058 -6.110085 10.679753 0.000000 0.000000 0.000000 1.605502 0.101720 -2.892440 -0.137432 0.189492 -4.390542 1.245942 -1.017762 4.494799 -0.950708 1.307126 -9.778125 0.000000 0.000000 0.000000 -17.552407 4.888107 -4.100119 -56.242848 -5.610011 -4.002611 -9.945293 -19.790614 2.502421 0.000000 0.000000 0.000000 12.747174 -3.157512 -2.757122 61.914871 4.867293 -3.425102 5.276641 18.751842 1.365153 0.000000 0.000000 0.000000 
0.000325 0.946949 0.000140 -2.249309 1.517227 7.313686 5.422287 -0.349453 -3.814336 2.743130 0.175142 -8.019811 2.256901 8.557681 12.495249 0.000000 0.000000 0.000000 -3.997157 0.684353 -8.077616 0.462901 -0.104771 -1.576528 -1.466881 -7.136283 10.416896 0.000000 0.000000 0.000000 1.459903 0.085281 -2.560174 0.002415 0.171765 -5.666189 0.555808 -1.373259 4.929787 -1.058268 1.345080 -9.177431 0.000000 0.000000 0.000000 -16.462467 4.289346 -3.611579 -56.650600 -5.464173 -4.142479 -9.351172 -19.285514 2.340677 0.000000 0.000000 0.000000 14.389708 -2.481974 -2.657038 60.266642 4.932383 -3.340117 4.962184 18.505879 1.301755 0.000000 0.000000 0.000000 
0.000404 0.946678 0.000129 -2.612807 1.066215 7.634113 5.512646 -0.367736 -4.246138 3.380857 0.157083 -8.076462 2.467855 8.920114 12.824254 0.000000 0.000000 0.000000 -3.937701 0.755384 -9.018421 0.886030 -0.124533 -0.996682 -1.465047 -7.219162 10.532136 0.000000 0.000000 0.000000 1.644197 0.083446 -2.581392 -0.663043 0.435930 -5.592165 1.506342 -2.066307 4.080956 -1.715534 1.692181 -8.655259 0.000000 0.000000 0.000000 -15.754440 5.187584 -3.771498 -57.650680 -5.424655 -4.109392 -8.859640 -19.400735 2.308470 0.000000 0.000000 0.000000 13.479419 -2.505828 -2.760918 60.017500 5.127946 -3.174371 6.063446 18.730012 1.430131 0.000000 0.000000 0.000000 
0.000419 0.946478 0.000110 -2.478035 1.444170 7.433623 5.302323 -0.355225 -3.922009 3.676913 0.164558 -8.344140 1.960727 8.160989 12.819821 0.000000 0.000000 0.000000 -3.984506 0.735187 -8.829170 0.670276 -0.109707 -1.158202 -1.785138 -7.837056 10.667091 0.000000 0.000000 0.000000 1.414253 0.076148 -2.381786 -0.367141 0.318816 -5.543434 1.286192 -2.283296 3.903168 -2.005275 1.899816 -8.837683 0.000000 0.000000 0.000000 -15.638307 4.954919 -3.650195 -57.190190 -5.843950 -3.866244 -9.272737 -18.796906 2.294790 0.000000 0.000000 0.000000 13.603191 -2.793948 -2.912410 59.703380 5.462283 -2.969914 6.558332 18.246510 1.458309 0.000000 0.000000 0.000000 
0.000462 0.946523 0.000098 -2.518951 1.283246 7.495632 5.102674 -0.353195 -3.903308 4.202132 0.150986 -8.387416 2.110264 8.355022 12.715569 0.000000 0.000000 0.000000 -3.894246 0.764801 -9.203150 0.449346 -0.082057 -0.978259 -1.734611 -7.783392 10.762954 0.000000 0.000000 0.000000 1.221680 0.080185 -2.404426 -0.361198 0.316132 -5.619127 1.651310 -2.556356 3.849396 -2.088255 1.917420 -8.492741 0.000000 0.000000 0.000000 -15.620650 5.366420 -3.777862 -57.272815 -5.739616 -3.905935 -9.174755 -18.841354 2.300116 0.000000 0.000000 0.000000 13.255460 -2.517210 -2.801600 59.684516 5.921644 -2.751317 6.175064 17.841938 1.355903 0.000000 0.000000 0.000000 
0.000499 0.946411 0.000104 -2.477303 1.387573 7.505691 4.968286 -0.350311 -3.822062 4.351151 0.170522 -8.727909 2.031543 8.372920 13.239069 0.000000 0.000000 0.000000 -3.810818 0.768140 -9.217783 0.199354 -0.055658 -0.919651 -1.725926 -7.727870 10.660343 0.000000 0.000000 0.000000 1.051035 0.077337 -2.303026 -0.191798 0.249460 -5.664577 1.527957 -2.845359 3.809258 -2.020553 1.872480 -8.975015 0.000000 0.000000 0.000000 -15.595774 5.542455 -3.828436 -56.963473 -5.573882 -3.958374 -9.565761 -18.612840 2.340443 0.000000 0.000000 0.000000 13.072355 -2.427365 -2.765075 59.614923 6.105442 -2.659995 6.249126 17.539888 1.333824 0.000000 0.000000 0.000000 
0.000576 0.946460 0.000066 -2.511573 1.411737 7.554139 4.880948 -0.353968 -3.885921 4.599608 0.168143 -8.788743 2.124872 8.504549 13.162853 0.000000 0.000000 0.000000 -3.652246 0.780368 -9.298512 0.043554 -0.032021 -0.703113 -1.859511 -7.931145 10.432059 0.000000 0.000000 0.000000 0.984107 0.079987 -2.341060 -0.155074 0.231120 -5.532084 1.473910 -2.812159 3.560237 -1.910981 1.790315 -8.634438 0.000000 0.000000 0.000000 -15.621078 5.704748 -3.929650 -56.674322 -5.585100 -3.912392 -9.350510 -18.488456 2.284445 0.000000 0.000000 0.000000 13.058572 -2.433134 -2.761477 59.540253 6.149380 -2.605934 6.078991 17.040418 1.269732 0.000000 0.000000 0.000000 
0.000676 0.946446 0.000077 -2.538722 1.645220 7.611291 4.907930 -0.363613 -4.028110 4.587283 0.174286 -8.863283 2.107268 8.531218 13.270419 0.000000 0.000000 0.000000 -3.654292 0.773362 -9.215853 0.024161 -0.031169 -0.731132 -1.842200 -7.791852 10.126658 0.000000 0.000000 0.000000 0.851628 0.083842 -2.393850 -0.124178 0.225125 -5.648656 1.481845 -2.941450 3.599410 -1.998622 1.849900 -8.633417 0.000000 0.000000 0.000000 -15.428936 5.821821 -3.960774 -56.873705 -5.660657 -3.888236 -9.191634 -18.214975 2.224332 0.000000 0.000000 0.000000 13.026336 -2.522651 -2.798234 59.444245 6.089266 -2.634834 5.741725 16.507302 1.183842 0.000000 0.000000 0.000000 
0.000764 0.946509 0.000123 -2.554215 1.743133 7.632095 4.892966 -0.367835 -4.096260 4.667125 0.173373 -8.879726 2.063024 8.443540 13.145009 0.000000 0.000000 0.000000 -3.691280 0.765291 -9.126345 0.011542 -0.035364 -0.870401 -1.901541 -7.888704 10.093750 0.000000 0.000000 0.000000 0.802335 0.091982 -2.555758 -0.165455 0.244497 -5.688773 1.395392 -2.872618 3.688327 -2.014356 1.867689 -8.560771 0.000000 0.000000 0.000000 -15.193249 5.924118 -4.003213 -56.945539 -5.723568 -3.868435 -8.924454 -17.996864 2.149664 0.000000 0.000000 0.000000 13.021443 -2.487223 -2.755915 59.150542 6.147528 -2.594362 5.298862 15.615324 1.066246 0.000000 0.000000 0.000000 
0.000802 0.946317 0.000208 -2.502793 1.855452 7.622880 5.059140 -0.371001 -4.137225 4.522314 0.175000 -8.846947 2.110766 8.503007 13.032861 0.000000 0.000000 0.000000 -3.837644 0.751914 -9.029272 0.116065 -0.049709 -0.975918 -1.933929 -7.927718 10.049095 0.000000 0.000000 0.000000 0.672557 0.097579 -2.642291 -0.237009 0.275486 -5.704046 1.357794 -2.854131 3.789160 -1.971024 1.841082 -8.453762 0.000000 0.000000 0.000000 -15.119876 6.134022 -4.111992 -57.056676 -5.755013 -3.869971 -8.377225 -17.725683 2.028033 0.000000 0.000000 0.000000 12.928172 -2.652953 -2.800769 59.085833 6.188372 -2.582032 4.884861 14.680923 0.954548 0.000000 0.000000 0.000000 
0.000772 0.946157 0.000289 -2.466488 1.808328 7.652443 5.278678 -0.369940 -4.106525 4.359345 0.191522 -9.020584 1.986654 8.344288 13.210495 0.000000 0.000000 0.000000 -3.946983 0.742543 -8.937931 0.175751 -0.061633 -1.136936 -1.986779 -8.046647 10.085743 0.000000 0.000000 0.000000 0.571879 0.105912 -2.800333 -0.274059 0.284896 -5.515864 1.303320 -2.751350 3.750293 -1.724062 1.679116 -8.518243 0.000000 0.000000 0.000000 -14.852145 6.515577 -4.279246 -57.128610 -5.818451 -3.834480 -8.010420 -17.254099 1.912554 0.000000 0.000000 0.000000 12.826082 -2.886072 -2.880064 58.980545 6.368768 -2.482184 4.253281 13.733991 0.825110 0.000000 0.000000 0.000000 
0.000708 0.945959 0.000401 -2.452103 1.746731 7.663479 5.324725 -0.369248 -4.098495 4.360354 0.197427 -9.105110 1.981302 8.301440 13.104943 0.000000 0.000000 0.000000 -3.919624 0.739229 -8.856830 0.120160 -0.063245 -1.318225 -1.935638 -7.950534 10.078477 0.000000 0.000000 0.000000 0.519425 0.107753 -2.826324 -0.384265 0.330947 -5.575044 1.361744 -2.747164 3.919569 -1.628548 1.610916 -8.517897 0.000000 0.000000 0.000000 -14.889453 6.792856 -4.412380 -57.092384 -5.620450 -3.940845 -7.305464 -17.021520 1.784027 0.000000 0.000000 0.000000 12.832507 -2.986144 -2.930664 58.895278 6.305302 -2.528642 3.603067 13.145809 0.724881 0.000000 0.000000 0.000000 
0.000675 0.945794 0.000510 -2.456937 1.581472 7.688348 5.428436 -0.368353 -4.099955 4.331327 0.204825 -9.198291 1.968929 8.304894 13.282790 0.000000 0.000000 0.000000 -3.921684 0.733478 -8.738204 0.126417 -0.070192 -1.483554 -1.875631 -7.836211 10.017783 0.000000 0.000000 0.000000 0.500491 0.111305 -2.899064 -0.475453 0.361166 -5.360192 1.386336 -2.671056 3.832784 -1.597514 1.582986 -8.394285 0.000000 0.000000 0.000000 -14.905628 7.158302 -4.593338 -57.060557 -5.457126 -4.004289 -6.750935 -16.479220 1.645575 0.000000 0.000000 0.000000 12.740310 -3.225525 -3.033883 58.979352 6.354467 -2.499708 3.028377 12.685851 0.643718 0.000000 0.000000 0.000000 
0.000652 0.945818 0.000666 -2.448506 1.502913 7.733305 5.430434 -0.365336 -4.033907 4.358717 0.217474 -9.386447 2.003559 8.382216 13.417038 0.000000 0.000000 0.000000 -3.878040 0.733842 -8.699459 0.100710 -0.072028 -1.592451 -1.873577 -7.822374 9.941768 0.000000 0.000000 0.000000 0.559072 0.109713 -2.875642 -0.567080 0.399377 -5.425068 1.409650 -2.720298 3.938868 -1.511471 1.522433 -8.526545 0.000000 0.000000 0.000000 -14.904643 7.383709 -4.687007 -57.225409 -5.144896 -4.168829 -6.149334 -16.037796 1.519379 0.000000 0.000000 0.000000 12.580696 -3.397098 -3.101101 59.054326 6.528614 -2.433135 2.582820 12.511501 0.593374 0.000000 0.000000 0.000000 
0.000645 0.945719 0.000823 -2.518197 1.365172 7.868002 5.587615 -0.367801 -4.072028 4.180712 0.230746 -9.515974 2.131874 8.527519 13.268229 0.000000 0.000000 0.000000 -3.854611 0.742568 -8.774012 0.178586 -0.085282 -1.753451 -1.690324 -7.426202 9.761824 0.000000 0.000000 0.000000 0.602036 0.112499 -2.945488 -0.641789 0.428742 -5.461897 1.545037 -2.902320 3.925337 -1.649372 1.602789 -8.638027 0.000000 0.000000 0.000000 -15.135683 7.690986 -4.829443 -57.225814 -4.590318 -4.423465 -5.980997 -15.739018 1.473634 0.000000 0.000000 0.000000 12.644095 -3.474258 -3.192049 59.061799 6.441223 -2.483793 2.277759 12.770185 0.573754 0.000000 0.000000 0.000000 
